<svg xmlns="http://www.w3.org/2000/svg" width="150" height="100" viewBox="0 0 150 100">
    <path d="M0 0v37.6l16.1 12.6L0 62.5v37.9h150V0z" fill="#d50f67"/>
    <path fill="#fff"
          d="M28 37.8V17.9h4.4v19.9H28zm20.2-8.5v8.5h-4.4v-7.6c0-1.6-1-2.7-2.4-2.7-1.7 0-2.9 1.2-2.9 3.9v6.4h-4.4V23.9h4.4v1.3c1.1-1.1 2.5-1.7 4.3-1.7 3.2 0 5.4 2.3 5.4 5.8zm15.7 0v8.5h-4.4v-7.6c0-1.6-1-2.7-2.4-2.7-1.7 0-2.9 1.2-2.9 3.9v6.4h-4.4V17.9h4.4v7.4c1.1-1.1 2.5-1.7 4.3-1.7 3.2-.1 5.4 2.2 5.4 5.7zm16.5 1.6c0 4.4-3.5 7.3-7.6 7.3-4.2 0-7.7-2.9-7.7-7.3s3.5-7.3 7.7-7.3 7.6 2.9 7.6 7.3zm-4.2 0c0-2.2-1.6-3.6-3.3-3.6-1.8 0-3.4 1.4-3.4 3.6s1.6 3.6 3.4 3.6c1.6 0 3.3-1.4 3.3-3.6zm19.6 6.9h-4.4v-1.3c-1.1 1.1-2.5 1.7-4.3 1.7-3.2 0-5.4-2.3-5.4-5.8v-8.5h4.4v7.6c0 1.6 1 2.7 2.4 2.7 1.7 0 2.9-1.2 2.9-3.9v-6.4h4.4v13.9zm5.7-4.5c.2 1.2 1.3 1.6 2.5 1.6s1.8-.5 1.8-1.1c0-.5-.4-.8-1.4-1l-2.8-.6c-2.6-.5-4-1.9-4-4 0-2.9 2.5-4.7 6-4.7s5.8 1.6 6.3 4l-4 .8c-.1-.9-1-1.6-2.3-1.6-1.2 0-1.6.6-1.6 1.1 0 .4.2.8 1.1 1l3.3.7c2.6.6 3.8 2.1 3.8 4.2 0 3.1-2.7 4.7-6.3 4.7-3.3 0-6.1-1.2-6.5-4l4.1-1.1zm23.9-1.3h-10.2c.4 1.7 1.5 2.7 3 2.7 1 0 2.2-.2 3-1.6l3.9.8c-1.2 2.9-3.7 4.3-6.9 4.3-4 0-7.3-3-7.3-7.4s3.3-7.4 7.4-7.4c3.9 0 7.1 2.8 7.2 7.4V32zm-10.1-2.7h5.7c-.4-1.5-1.5-2.2-2.8-2.2-1.2 0-2.5.8-2.9 2.2zM41.9 61.4h-4.4V51h-5.1v10.4H28V51h-2v-3.5h2v-1.1c0-3.3 2.2-5.3 5.6-5.3.9 0 3.9-.1 4.7.2l-.2 3.7c-.4-.1-3.6-.1-3.9-.1-1.1 0-1.9.6-1.9 1.7v.9h9.5v13.9zm1.7 0v-18H48v18h-4.4zM73 52.7v8.7h-4.4v-7.7c0-1.6-1-2.6-2.3-2.6-1.6 0-2.7 1.2-2.7 3.5v6.8h-4.4v-7.7c0-1.6-1-2.6-2.4-2.6-1.6 0-2.7 1.2-2.7 3.5v6.8h-4.4V47.5h4.4v1.3c.9-1.1 2.3-1.7 4.1-1.7 1.9 0 3.6.8 4.5 2.4 1.1-1.4 2.8-2.4 4.9-2.4 3 0 5.4 2.2 5.4 5.6zm1.6 8.7V47.5H79v13.9h-4.4zm20.2-8.5v8.5h-4.4v-7.6c0-1.6-1-2.7-2.4-2.7-1.7 0-2.9 1.2-2.9 3.9v6.4h-4.4V47.5h4.4v1.3c1.1-1.1 2.5-1.7 4.3-1.7 3.2 0 5.4 2.3 5.4 5.8zm16.5 7.1c0 4.3-3.3 6.6-7.8 6.6-3.2 0-5.6-1.1-7-3.3l3.7-2c1.1 1.2 1.8 1.7 3.3 1.7 2 0 3.5-1.2 3.5-3.4v-.4c-1 .9-2.4 1.3-4.2 1.3-3.6 0-6.7-2.9-6.7-6.8 0-3.8 3.1-6.7 6.7-6.7 1.8 0 3.2.5 4.2 1.3v-.9h4.3V60zm-4.4-6.2c0-1.9-1.5-3.2-3.2-3.2-1.9 0-3.3 1.3-3.3 3.2 0 1.9 1.4 3.2 3.3 3.2 1.8 0 3.2-1.4 3.2-3.2z"/>
    <path fill="#d50f67"
          d="M76.4 30.9c0 2-1.6 3.6-3.7 3.6s-3.6-1.6-3.6-3.6c0-1.9 1.5-3.6 3.6-3.6 2.2 0 3.7 1.7 3.7 3.6z"/>
    <path fill="#fff"
          d="M38.6 75.1l4.1.9c-.7 3.3-3.6 5.4-7.1 5.4-4.2 0-7.6-3-7.6-7.4s3.4-7.4 7.6-7.4c3.4 0 6.3 2.1 7.1 5.3l-4.2 1c-.4-1.7-1.5-2.5-2.9-2.5-2 0-3.3 1.5-3.3 3.5s1.3 3.5 3.3 3.5c1.4.1 2.5-.6 3-2.3zM59.4 74c0 4.4-3.5 7.3-7.6 7.3-4.2 0-7.7-2.9-7.7-7.3s3.5-7.3 7.7-7.3 7.6 3 7.6 7.3zm-4.2 0c0-2.2-1.6-3.6-3.3-3.6-1.8 0-3.4 1.4-3.4 3.6s1.6 3.6 3.4 3.6c1.6 0 3.3-1.4 3.3-3.6zm29-1.7V81h-4.4v-7.7c0-1.6-1-2.6-2.3-2.6-1.6 0-2.7 1.2-2.7 3.5V81h-4.4v-7.7c0-1.6-1-2.6-2.4-2.6-1.6 0-2.7 1.2-2.7 3.5V81h-4.4V67.1h4.4v1.3c.9-1.1 2.3-1.7 4.1-1.7 1.9 0 3.6.8 4.5 2.4 1.1-1.4 2.8-2.4 4.9-2.4 3 0 5.4 2.2 5.4 5.6z"/>
    <path fill="#d50f67"
          d="M55.6 74.1c0 2.1-1.6 3.7-3.8 3.7-2.2 0-3.7-1.6-3.7-3.7 0-2 1.6-3.7 3.7-3.7s3.8 1.7 3.8 3.7zm51.8-20.4c0 2.1-1.6 3.7-3.8 3.7-2.2 0-3.7-1.6-3.7-3.7 0-2 1.6-3.7 3.7-3.7 2.2 0 3.8 1.8 3.8 3.7z"/>
    <path fill="#fcba00"
          d="M121.9 53.7c0 2.1-1.6 3.7-3.8 3.7-2.2 0-3.7-1.6-3.7-3.7 0-2 1.6-3.7 3.7-3.7 2.2 0 3.8 1.8 3.8 3.7z"/>
</svg>
